# .PCD v0.7 - Point Cloud Data file format
VERSION 0.7
FIELDS x y z intensity index
SIZE 4 4 4 4 4
TYPE F F F F I
COUNT 1 1 1 1 1
WIDTH 88
HEIGHT 1
VIEWPOINT 0 0 0 1 0 0 0
POINTS 88
DATA ascii
0.303 0 0 5173 0
0.30095416 0.0052531743 0 5221 1
0.29881784 0.010434949 0 5109 2
0.29659295 0.015543778 0 5078 3
0.29428139 0.020578159 0 4964 4
0.29188505 0.025536634 0 5114 5
0.28940588 0.030417783 0 5103 6
0.28783837 0.035342108 0 5161 7
0.2851972 0.040081851 0 5023 8
0.28346655 0.044896692 0 5293 9
0.2806702 0.049489729 0 5038 10
0.27878213 0.054189757 0 5055 11
0.27681577 0.058839008 0 5122 12
0.27477238 0.063436195 0 5155 13
0.27362341 0.068221979 0 5350 14
0.27142516 0.07272815 0 5263 15
0.26915327 0.077178456 0 5518 16
0.26680905 0.081571706 0 5320 17
0.26439372 0.085906722 0 5270 18
0.26285416 0.090507947 0 5162 19
0.26029485 0.094739586 0 5308 20
0.25860178 0.099267922 0 5274 21
0.26146585 0.10563906 0 6406 22
0.25958237 0.11018618 0 5338 23
0.25761983 0.11469974 0 5443 24
0.25829771 0.12044621 0 5108 25
0.25885266 0.12625088 0 4931 26
0.25928292 0.13211124 0 5128 27
0.2595866 0.13802464 0 4811 28
0.26063669 0.14447327 0 4929 29
0.26153967 0.15099999 0 5091 30
0.26229319 0.15760164 0 5127 31
0.2628949 0.16427498 0 5037 32
0.26334256 0.17101666 0 4355 33
0.26446298 0.17838253 0 4375 34
0.26540527 0.18583876 0 4681 35
0.26697561 0.19396915 0 4490 36
0.2675429 0.20160803 0 4772 37
0.26792365 0.2093249 0 4097 38
0.2688925 0.21774484 0 4129 39
0.26964766 0.22626124 0 4231 40
0.27018604 0.23486914 0 4621 41
0.27124786 0.24423267 0 4594 42
0.27206358 0.25370339 0 3891 43
0.2726298 0.26327553 0 3855 44
0.27223611 0.27223611 0 4298 45
0.27230608 0.2819812 0 4101 46
0.28439331 0.3049745 0 2583 47
0.22751519 -0.19090793 0 4860 320
0.23081234 -0.18690816 0 4970 321
0.23088716 -0.18038882 0 5171 322
0.23160428 -0.17452636 0 5259 323
0.23218787 -0.16869438 0 5198 324
0.23263918 -0.16289572 0 5470 325
0.23378859 -0.15769242 0 5385 326
0.23482776 -0.15249895 0 5002 327
0.23660542 -0.14784749 0 5697 328
0.23914969 -0.14369564 0 5439 329
0.24162109 -0.13950002 0 5332 330
0.2440189 -0.13526191 0 5481 331
0.24722531 -0.13145205 0 5414 332
0.24948183 -0.12711735 0 5560 333
0.25166231 -0.12274393 0 5283 334
0.25467247 -0.11875574 0 5031 335
0.25761983 -0.11469974 0 5442 336
0.26050287 -0.11057692 0 5196 337
0.26332021 -0.10638829 0 5197 338
0.26607043 -0.10213488 0 5343 339
0.26969177 -0.09815979 0 5542 340
0.27230933 -0.093763635 0 4909 341
0.27485535 -0.089305922 0 5424 342
0.2782847 -0.085080184 0 5192 343
0.28068841 -0.080486119 0 4877 344
0.28398219 -0.076092809 0 5277 345
0.28720754 -0.071608894 0 4737 346
0.2903623 -0.067035429 0 4969 347
0.29344428 -0.062373523 0 4903 348
0.29645139 -0.057624329 0 4734 349
0.29938155 -0.052789059 0 4964 350
0.30322033 -0.048025396 0 5206 351
0.30599281 -0.043004502 0 4882 352
0.30868185 -0.037901379 0 4656 353
0.31227988 -0.032821953 0 4756 354
0.31479755 -0.027541231 0 4425 355
0.31722537 -0.022182573 0 5504 356
0.31856284 -0.016695186 0 4907 357
0.31180996 -0.010888658 0 5312 358
0.30795309 -0.0053753559 0 5085 359
