# .PCD v0.7 - Point Cloud Data file format
VERSION 0.7
FIELDS x y z intensity index
SIZE 4 4 4 4 4
TYPE F F F F I
COUNT 1 1 1 1 1
WIDTH 514
HEIGHT 1
VIEWPOINT 0 0 0 1 0 0 0
POINTS 514
DATA ascii
0.93282473 -0.44776833 0 1 37
0.9328993 -0.44598711 0 1 38
0.93297386 -0.44420829 0 1 39
0.93304819 -0.44243187 0 1 40
0.93312252 -0.44065785 0 1 41
0.93319672 -0.43888623 0 1 42
0.93327087 -0.43711695 0 1 43
0.93334484 -0.43535 0 1 44
0.93341875 -0.43358538 0 1 45
0.9334926 -0.43182307 0 1 46
0.93356627 -0.43006307 0 1 47
0.93363994 -0.42830539 0 1 48
0.93371344 -0.42654994 0 1 49
0.93378687 -0.42479676 0 1 50
0.93386018 -0.42304584 0 1 51
0.93393344 -0.42129713 0 1 52
0.93400657 -0.41955069 0 1 53
0.93407959 -0.41780642 0 1 54
0.9341526 -0.41606438 0 1 55
0.93422544 -0.41432452 0 1 56
0.93429822 -0.41258681 0 1 57
0.93437099 -0.41085133 0 1 58
0.93444353 -0.40911791 0 1 59
0.93451601 -0.40738663 0 1 60
0.93458849 -0.40565756 0 1 61
0.93466085 -0.40393052 0 1 62
0.93473297 -0.40220556 0 1 63
0.93480521 -0.40048274 0 1 64
0.93487728 -0.39876196 0 1 65
0.93494922 -0.39704323 0 1 66
0.9350211 -0.39532655 0 1 67
0.93509299 -0.39361197 0 1 68
0.93516469 -0.39189932 0 1 69
0.93523633 -0.39018872 0 1 70
0.93530792 -0.38848013 0 1 71
0.93537939 -0.38677353 0 1 72
0.93545079 -0.38506886 0 1 73
0.93552208 -0.3833662 0 1 74
0.93559337 -0.38166547 0 1 75
0.93566453 -0.37996671 0 1 76
0.93573558 -0.37826982 0 1 77
0.93580657 -0.37657487 0 1 78
0.93587744 -0.3748818 0 1 79
0.93594825 -0.37319067 0 1 80
0.93601906 -0.37150142 0 1 81
0.93608975 -0.36981401 0 1 82
0.93616033 -0.36812845 0 1 83
0.93623084 -0.36644474 0 1 84
0.93630129 -0.36476287 0 1 85
0.93637162 -0.3630828 0 1 86
0.9364419 -0.36140457 0 1 87
0.93651217 -0.35972813 0 1 88
0.97598648 -0.37311763 0 1 89
0.97605944 -0.37137434 0 1 90
0.97613239 -0.36963293 0 1 91
0.97620529 -0.36789334 0 1 92
0.97627801 -0.36615556 0 1 93
0.97635078 -0.36441961 0 1 94
0.97642332 -0.36268541 0 1 95
0.97649592 -0.36095303 0 1 96
0.97656846 -0.35922241 0 1 97
0.97664082 -0.35749355 0 1 98
0.9858374 -0.35908994 0 1 99
0.98591036 -0.35734844 0 1 100
0.98598313 -0.35560867 0 1 101
0.98605597 -0.35387063 0 1 102
0.98612875 -0.35213435 0 1 103
0.98620135 -0.35039973 0 1 104
0.98627394 -0.34866685 0 1 105
0.98634642 -0.34693563 0 1 106
0.98641884 -0.34520608 0 1 107
0.98649126 -0.34347823 0 1 108
0.98656356 -0.34175199 0 1 109
0.9866358 -0.34002739 0 1 110
0.98670793 -0.33830443 0 1 111
0.98678005 -0.33658311 0 1 112
0.98685211 -0.33486339 0 1 113
0.98692405 -0.33314526 0 1 114
0.98699594 -0.33142871 0 1 115
0.98706782 -0.32971373 0 1 116
1.0068823 -0.3345603 0 1 117
1.0069554 -0.33281425 0 1 118
1.0070285 -0.33106974 0 1 119
1.0268486 -0.33578417 0 1 120
1.0269229 -0.33400863 0 1 121
1.0467472 -0.33862379 0 1 122
1.0468228 -0.33681729 0 1 123
1.0468985 -0.33501238 0 1 124
1.0469739 -0.33320901 0 1 125
1.0470494 -0.33140722 0 1 126
1.0471249 -0.32960701 0 1 127
1.0472002 -0.32780829 0 1 128
1.0472754 -0.32601109 0 1 129
1.0473506 -0.32421544 0 1 130
1.0474257 -0.32242128 0 1 131
1.0475008 -0.32062858 0 1 132
1.047576 -0.3188374 0 1 133
1.0476509 -0.31704772 0 1 134
1.0477257 -0.31525943 0 1 135
1.0478005 -0.3134726 0 1 136
1.0478754 -0.31168723 0 1 137
1.0479501 -0.30990329 0 1 138
1.0480247 -0.30812076 0 1 139
1.0480994 -0.30633965 0 1 140
1.0481739 -0.30455992 0 1 141
1.0482483 -0.30278155 0 1 142
1.0483228 -0.30100459 0 1 143
1.0483971 -0.29922897 0 1 144
1.0484715 -0.29745471 0 1 145
1.0485457 -0.29568183 0 1 146
1.0486199 -0.29391024 0 1 147
1.0486941 -0.29214001 0 1 148
1.0487682 -0.29037106 0 1 149
1.0488422 -0.2886034 0 1 150
1.0489162 -0.28683704 0 1 151
1.0489901 -0.28507197 0 1 152
1.0490639 -0.28330818 0 1 153
1.0491378 -0.28154564 0 1 154
1.0492115 -0.27978435 0 1 155
1.0492853 -0.27802429 0 1 156
1.049359 -0.27626547 0 1 157
1.0494325 -0.27450788 0 1 158
1.0693082 -0.27789775 0 1 159
1.069383 -0.27610943 0 1 160
1.0892626 -0.27940238 0 1 161
1.0893388 -0.27758339 0 1 162
1.089415 -0.27576566 0 1 163
1.089491 -0.27394912 0 1 164
1.0895671 -0.27213377 0 1 165
1.089643 -0.27031958 0 1 166
1.0897191 -0.26850662 0 1 167
1.0897948 -0.26669475 0 1 168
1.0898706 -0.26488405 0 1 169
1.0899465 -0.26307452 0 1 170
1.0900222 -0.26126611 0 1 171
1.0900979 -0.25945884 0 1 172
1.0901736 -0.25765267 0 1 173
1.0902492 -0.25584757 0 1 174
1.0903246 -0.25404358 0 1 175
1.0904002 -0.25224069 0 1 176
1.0904757 -0.25043884 0 1 177
1.090551 -0.24863808 0 1 178
1.0906265 -0.24683838 0 1 179
1.0907018 -0.24503969 0 1 180
1.090777 -0.24324203 0 1 181
1.0908524 -0.24144542 0 1 182
1.0909276 -0.23964982 0 1 183
1.1108391 -0.24217984 0 1 184
1.1109155 -0.2403536 0 1 185
1.110992 -0.23852837 0 1 186
1.130909 -0.240931 0 1 187
1.1309867 -0.23907518 0 1 188
1.1310644 -0.23722036 0 1 189
1.1509866 -0.23949572 0 1 190
1.1510655 -0.23761034 0 1 191
1.1511445 -0.23572592 0 1 192
1.1512233 -0.23384248 0 1 193
1.1513022 -0.23195997 0 1 194
1.151381 -0.23007841 0 1 195
1.1514597 -0.2281978 0 1 196
1.1515385 -0.22631811 0 1 197
1.1516172 -0.22443932 0 1 198
1.1516957 -0.22256143 0 1 199
1.1517745 -0.22068447 0 1 200
1.1518531 -0.21880835 0 1 201
1.1519316 -0.21693313 0 1 202
1.15201 -0.21505874 0 1 203
1.1520884 -0.21318522 0 1 204
1.1521668 -0.21131255 0 1 205
1.1522453 -0.20944072 0 1 206
1.1523237 -0.2075697 0 1 207
1.152402 -0.2056995 0 1 208
1.1524802 -0.20383009 0 1 209
1.1525586 -0.20196149 0 1 210
1.1526368 -0.20009366 0 1 211
1.152715 -0.19822662 0 1 212
1.1527932 -0.19636033 0 1 213
1.1528713 -0.1944948 0 1 214
1.1529493 -0.19263002 0 1 215
1.1530275 -0.19076598 0 1 216
1.1531055 -0.18890263 0 1 217
1.1531835 -0.18704002 0 1 218
1.1532615 -0.18517812 0 1 219
1.1533394 -0.1833169 0 1 220
1.1534173 -0.18145637 0 1 221
1.1534952 -0.17959651 0 1 222
1.1535732 -0.17773734 0 1 223
1.1536509 -0.17587881 0 1 224
1.1537287 -0.17402093 0 1 225
1.1538066 -0.1721637 0 1 226
1.1538843 -0.17030707 0 1 227
1.153962 -0.16845107 0 1 228
1.1540397 -0.16659568 0 1 229
1.1541175 -0.16474089 0 1 230
1.1541951 -0.16288668 0 1 231
1.1542728 -0.16103306 0 1 232
1.1543504 -0.15918002 0 1 233
1.1544279 -0.15732752 0 1 234
1.1545055 -0.15547557 0 1 235
1.154583 -0.15362416 0 1 236
1.1546605 -0.1517733 0 1 237
1.1547379 -0.14992295 0 1 238
1.1548154 -0.14807312 0 1 239
1.1548929 -0.1462238 0 1 240
1.1549703 -0.14437495 0 1 241
1.1550478 -0.14252661 0 1 242
1.1551251 -0.14067873 0 1 243
1.1552025 -0.13883132 0 1 244
1.15528 -0.13698436 0 1 245
1.1553572 -0.13513784 0 1 246
1.1554346 -0.13329178 0 1 247
1.1555119 -0.13144614 0 1 248
1.1555891 -0.1296009 0 1 249
1.1556664 -0.12775609 0 1 250
1.1557436 -0.12591165 0 1 251
1.1558208 -0.12406763 0 1 252
1.1558981 -0.12222399 0 1 253
1.1559752 -0.12038071 0 1 254
1.1560525 -0.1185378 0 1 255
1.1561296 -0.11669524 0 1 256
1.1562067 -0.11485302 0 1 257
1.156284 -0.11301114 0 1 258
1.156361 -0.11116957 0 1 259
1.1564381 -0.10932832 0 1 260
1.1565152 -0.10748739 0 1 261
1.1565924 -0.10564674 0 1 262
1.1566694 -0.10380639 0 1 263
1.1567464 -0.10196631 0 1 264
1.1568235 -0.1001265 0 1 265
1.1569006 -0.098286957 0 1 266
1.1569777 -0.096447662 0 1 267
1.1570547 -0.094608597 0 1 268
1.1571317 -0.092769772 0 1 269
1.1572087 -0.090931177 0 1 270
1.1572857 -0.089092784 0 1 271
1.1573626 -0.087254591 0 1 272
1.1574396 -0.0854166 0 1 273
1.1575166 -0.083578795 0 1 274
1.1575936 -0.081741162 0 1 275
1.1576705 -0.079903699 0 1 276
1.1577474 -0.078066394 0 1 277
1.1578243 -0.07622923 0 1 278
1.1579013 -0.074392214 0 1 279
1.1579782 -0.072555318 0 1 280
1.1580552 -0.070718557 0 1 281
1.1581321 -0.068881892 0 1 282
1.158209 -0.067045346 0 1 283
1.1582859 -0.065208882 0 1 284
1.1583627 -0.0633725 0 1 285
1.1584396 -0.061536193 0 1 286
1.1585166 -0.05969996 0 1 287
1.1585934 -0.057863772 0 1 288
1.1586703 -0.056027636 0 1 289
1.1587473 -0.054191537 0 1 290
1.1588242 -0.052355468 0 1 291
1.158901 -0.050519414 0 1 292
1.158978 -0.048683375 0 1 293
1.1590549 -0.046847336 0 1 294
1.1591318 -0.045011286 0 1 295
1.1592087 -0.043175217 0 1 296
1.1592855 -0.041339125 0 1 297
1.1593624 -0.039502997 0 1 298
1.1594393 -0.03766682 0 1 299
1.1595162 -0.035830591 0 1 300
1.1595931 -0.033994298 0 1 301
1.15967 -0.032157931 0 1 302
1.159747 -0.030321483 0 1 303
1.1598239 -0.028484944 0 1 304
1.1599008 -0.026648303 0 1 305
1.1599777 -0.024811551 0 1 306
1.1600547 -0.022974681 0 1 307
1.1601316 -0.021137683 0 1 308
1.1602085 -0.019300546 0 1 309
1.1602855 -0.017463265 0 1 310
1.1603624 -0.015625825 0 1 311
1.1604394 -0.013788221 0 1 312
1.1605164 -0.011950443 0 1 313
1.1605933 -0.01011248 0 1 314
1.1606704 -0.0082743252 0 1 315
1.1607473 -0.0064359675 0 1 316
1.1608243 -0.0045973975 0 1 317
1.1609013 -0.002758607 0 1 318
1.1609783 -0.00091958663 0 1 319
1.1610553 0.0009196733 0 1 320
1.1611323 0.0027591819 0 1 321
1.1612095 0.0045989486 0 1 322
1.1612865 0.0064389827 0 1 323
1.1613635 0.0082792928 0 1 324
1.1614406 0.010119889 0 1 325
1.1615177 0.011960781 0 1 326
1.1615949 0.013801977 0 1 327
1.1616719 0.015643487 0 1 328
1.1617491 0.017485321 0 1 329
1.1618264 0.019327486 0 1 330
1.1619034 0.021169992 0 1 331
1.1619806 0.02301285 0 1 332
1.1620578 0.024856068 0 1 333
1.1621349 0.026699657 0 1 334
1.1622123 0.028543627 0 1 335
1.1622894 0.030387981 0 1 336
1.1623667 0.032232735 0 1 337
1.162444 0.034077898 0 1 338
1.1625212 0.035923477 0 1 339
1.1625986 0.037769482 0 1 340
1.162676 0.039615925 0 1 341
1.1627533 0.041462809 0 1 342
1.1628306 0.043310147 0 1 343
1.1629081 0.045157954 0 1 344
1.1629853 0.047006227 0 1 345
1.1630628 0.048854988 0 1 346
1.1631403 0.050704241 0 1 347
1.1632178 0.052553996 0 1 348
1.1632953 0.054404262 0 1 349
1.1633728 0.056255046 0 1 350
1.1634504 0.058106363 0 1 351
1.1635278 0.05995822 0 1 352
1.1636055 0.061810628 0 1 353
1.1636829 0.063663587 0 1 354
1.1637607 0.06551712 0 1 355
1.1638383 0.067371234 0 1 356
1.163916 0.06922593 0 1 357
1.1639937 0.071081229 0 1 358
1.1640714 0.072937131 0 1 359
1.1641492 0.074793644 0 1 360
1.1642269 0.076650791 0 1 361
1.1643047 0.078508578 0 1 362
1.1643826 0.080366999 0 1 363
1.1644604 0.082226083 0 1 364
1.1645384 0.08408583 0 1 365
1.1646162 0.085946247 0 1 366
1.1646942 0.08780735 0 1 367
1.1647722 0.089669153 0 1 368
1.1648501 0.091531649 0 1 369
1.1649282 0.093394868 0 1 370
1.1650062 0.095258795 0 1 371
1.1650842 0.097123466 0 1 372
1.1651624 0.098988891 0 1 373
1.1652405 0.10085505 0 1 374
1.1653188 0.10272198 0 1 375
1.1653969 0.10458968 0 1 376
1.1654751 0.10645816 0 1 377
1.1655535 0.10832743 0 1 378
1.1656318 0.11019751 0 1 379
1.1657102 0.1120684 0 1 380
1.1657885 0.1139401 0 1 381
1.165867 0.11581264 0 1 382
1.1659454 0.11768603 0 1 383
1.1660239 0.11956026 0 1 384
1.1661024 0.12143535 0 1 385
1.166181 0.12331132 0 1 386
1.1662596 0.12518817 0 1 387
1.1663382 0.12706591 0 1 388
1.1664169 0.12894455 0 1 389
1.1664957 0.13082412 0 1 390
1.1665745 0.13270459 0 1 391
1.1666532 0.13458598 0 1 392
1.166732 0.13646834 0 1 393
1.1668109 0.13835163 0 1 394
1.1668898 0.1402359 0 1 395
1.1669687 0.14212114 0 1 396
1.1670477 0.14400735 0 1 397
1.1470039 0.14337914 0 1 398
1.1470816 0.14523479 0 1 399
1.1270337 0.14451091 0 1 400
1.1271101 0.14633597 0 1 401
1.1271867 0.14816205 0 1 402
1.1071335 0.14731076 0 1 403
1.1072086 0.1491062 0 1 404
1.1072839 0.15090267 0 1 405
1.1073592 0.15270014 0 1 406
1.1074345 0.15449867 0 1 407
1.1075099 0.15629822 0 1 408
1.1075852 0.15809882 0 1 409
1.1076607 0.15990049 0 1 410
1.1077362 0.16170323 0 1 411
1.1078117 0.16350703 0 1 412
1.1078873 0.16531193 0 1 413
1.107963 0.16711794 0 1 414
1.1080387 0.16892506 0 1 415
1.1081144 0.17073327 0 1 416
1.1081902 0.17254266 0 1 417
1.108266 0.17435317 0 1 418
1.1083418 0.17616481 0 1 419
1.1084177 0.17797764 0 1 420
1.1084937 0.17979161 0 1 421
1.1085697 0.18160677 0 1 422
1.1086458 0.18342313 0 1 423
1.108722 0.1852407 0 1 424
1.1087981 0.18705948 0 1 425
1.1088743 0.18887947 0 1 426
1.1089506 0.19070069 0 1 427
1.1090269 0.19252318 0 1 428
1.1091032 0.19434689 0 1 429
1.1091797 0.19617188 0 1 430
1.1092561 0.19799815 0 1 431
1.1093327 0.19982569 0 1 432
1.1094092 0.20165454 0 1 433
1.1094859 0.20348468 0 1 434
1.1095626 0.20531617 0 1 435
1.0894642 0.20338263 0 1 436
1.0895395 0.20518342 0 1 437
1.089615 0.20698552 0 1 438
1.0695111 0.20492251 0 1 439
1.0695853 0.20669387 0 1 440
1.0696595 0.20846657 0 1 441
1.0697337 0.21024062 0 1 442
1.0698081 0.21201599 0 1 443
1.0698826 0.21379277 0 1 444
1.069957 0.2155709 0 1 445
1.0700315 0.21735039 0 1 446
1.0701061 0.21913131 0 1 447
1.0701808 0.22091362 0 1 448
1.0702554 0.22269733 0 1 449
1.0703301 0.22448248 0 1 450
1.070405 0.22626907 0 1 451
1.0704799 0.2280571 0 1 452
1.0705549 0.22984661 0 1 453
1.0706298 0.23163755 0 1 454
1.0707048 0.23342998 0 1 455
1.07078 0.23522392 0 1 456
1.0708551 0.23701935 0 1 457
1.0709305 0.23881631 0 1 458
1.0710058 0.24061477 0 1 459
1.0710812 0.24241476 0 1 460
1.0711566 0.24421631 0 1 461
1.0712321 0.24601939 0 1 462
1.0713077 0.24782406 0 1 463
1.0713834 0.24963032 0 1 464
1.0512428 0.24669401 0 1 465
1.0513172 0.24846932 0 1 466
1.0311725 0.24543376 0 1 467
1.0312456 0.24717805 0 1 468
1.0313187 0.24892388 0 1 469
1.0111685 0.24575619 0 1 470
1.0112404 0.2474709 0 1 471
1.0113122 0.2491872 0 1 472
1.011384 0.25090507 0 1 473
1.0114561 0.25262457 0 1 474
1.0115283 0.25434563 0 1 475
1.0116004 0.25606835 0 1 476
1.0116725 0.25779265 0 1 477
1.0117449 0.25951862 0 1 478
1.0118172 0.26124626 0 1 479
1.0118896 0.26297551 0 1 480
1.0119621 0.26470646 0 1 481
1.0120347 0.26643911 0 1 482
1.0121073 0.26817343 0 1 483
1.01218 0.26990947 0 1 484
1.0122528 0.27164724 0 1 485
1.0123255 0.27338672 0 1 486
1.0123985 0.27512795 0 1 487
1.0124714 0.27687091 0 1 488
1.0125446 0.27861562 0 1 489
1.0126177 0.28036213 0 1 490
1.0126909 0.28211045 0 1 491
1.0127642 0.28386053 0 1 492
1.0128375 0.2856124 0 1 493
1.012911 0.28736612 0 1 494
1.0129845 0.28912169 0 1 495
1.0130582 0.2908791 0 1 496
1.0131319 0.29263833 0 1 497
1.0132055 0.29439947 0 1 498
1.0132793 0.29616243 0 1 499
1.0133533 0.29792735 0 1 500
1.0134273 0.29969412 0 1 501
1.0135013 0.3014628 0 1 502
1.0135754 0.30323344 0 1 503
1.0136497 0.30500603 0 1 504
1.013724 0.30678055 0 1 505
1.0137985 0.30855703 0 1 506
1.013873 0.31033549 0 1 507
1.0139474 0.31211591 0 1 508
1.0140221 0.31389835 0 1 509
0.99381489 0.30936915 0 1 510
0.99388826 0.31111991 0 1 511
0.99396151 0.31287265 0 1 512
0.97374862 0.30820644 0 1 513
0.97382075 0.30992737 0 1 514
0.97389281 0.31165025 0 1 515
0.97396505 0.31337517 0 1 516
0.97403747 0.31510213 0 1 517
0.97410977 0.31683105 0 1 518
0.97418231 0.31856209 0 1 519
0.97425491 0.32029516 0 1 520
0.9743275 0.32203025 0 1 521
0.97440034 0.32376745 0 1 522
0.97447312 0.32550672 0 1 523
0.97454602 0.3272481 0 1 524
0.97461903 0.32899159 0 1 525
0.97469223 0.33073726 0 1 526
0.97476536 0.33248502 0 1 527
0.97483855 0.33423492 0 1 528
0.97491199 0.335987 0 1 529
0.97498548 0.33774129 0 1 530
0.97505897 0.33949772 0 1 531
0.9751327 0.34125641 0 1 532
0.97520643 0.34301728 0 1 533
0.97528023 0.34478039 0 1 534
0.97535419 0.34654576 0 1 535
0.97542816 0.34831333 0 1 536
0.97550225 0.3500832 0 1 537
0.97557658 0.3518554 0 1 538
0.97565079 0.35362983 0 1 539
0.97572523 0.35540661 0 1 540
0.97579974 0.35718572 0 1 541
0.9758743 0.35896713 0 1 542
0.97594905 0.36075091 0 1 543
0.97602379 0.36253703 0 1 544
0.97609872 0.36432555 0 1 545
0.9761737 0.36611646 0 1 546
0.97624886 0.36790982 0 1 547
0.97632402 0.36970553 0 1 548
0.97639924 0.37150365 0 1 549
0.9764747 0.37330431 0 1 550
